<?xml version="1.0" encoding="UTF-8" standalone="no"?>
<!DOCTYPE svg PUBLIC "-//W3C//DTD SVG 1.1//EN"
 "http://www.w3.org/Graphics/SVG/1.1/DTD/svg11.dtd">
<!-- Generated by graphviz version 2.44.1 (20200629.0846)
 -->
<!-- Title: dependencies Pages: 1 -->
<svg width="2209pt" height="284pt"
 viewBox="0.00 0.00 2209.00 284.00" xmlns="http://www.w3.org/2000/svg" xmlns:xlink="http://www.w3.org/1999/xlink">
<g id="graph0" class="graph" transform="scale(1 1) rotate(0) translate(4 280)">
<title>dependencies</title>
<polygon fill="white" stroke="transparent" points="-4,4 -4,-280 2205,-280 2205,4 -4,4"/>
<text text-anchor="start" x="1079.51" y="-42.4" font-family="sans-serif" font-weight="bold" font-size="14.00">Legend</text>
<polygon fill="#ffffb3" stroke="transparent" points="866.5,-10 866.5,-30 886.5,-30 886.5,-10 866.5,-10"/>
<text text-anchor="start" x="890.13" y="-15.4" font-family="sans-serif" font-size="14.00"> &#160;Declarations</text>
<polygon fill="#8dd3c7" stroke="transparent" points="979.5,-10 979.5,-30 999.5,-30 999.5,-10 979.5,-10"/>
<text text-anchor="start" x="1003.23" y="-15.4" font-family="sans-serif" font-size="14.00"> &#160;Module</text>
<polygon fill="#80b1d3" stroke="transparent" points="1065.5,-10 1065.5,-30 1085.5,-30 1085.5,-10 1065.5,-10"/>
<text text-anchor="start" x="1089.28" y="-15.4" font-family="sans-serif" font-size="14.00"> &#160;Bootstrap</text>
<polygon fill="#fdb462" stroke="transparent" points="1162.5,-10 1162.5,-30 1182.5,-30 1182.5,-10 1162.5,-10"/>
<text text-anchor="start" x="1186.17" y="-15.4" font-family="sans-serif" font-size="14.00"> &#160;Providers</text>
<polygon fill="#fb8072" stroke="transparent" points="1258.5,-10 1258.5,-30 1278.5,-30 1278.5,-10 1258.5,-10"/>
<text text-anchor="start" x="1282.23" y="-15.4" font-family="sans-serif" font-size="14.00"> &#160;Exports</text>
<g id="clust1" class="cluster">
<title>cluster_AppModule</title>
<polygon fill="none" stroke="black" stroke-dasharray="1,5" points="8,-70 8,-268 2193,-268 2193,-70 8,-70"/>
</g>
<g id="clust2" class="cluster">
<title>cluster_AppModule_declarations</title>
<polygon fill="none" stroke="black" points="168,-78 168,-130 2185,-130 2185,-78 168,-78"/>
</g>
<g id="clust16" class="cluster">
<title>cluster_AppModule_imports</title>
<polygon fill="none" stroke="black" points="16,-78 16,-130 160,-130 160,-78 16,-78"/>
</g>
<g id="clust18" class="cluster">
<title>cluster_AppModule_bootstrap</title>
<polygon fill="none" stroke="black" points="1091,-208 1091,-260 1215,-260 1215,-208 1091,-208"/>
</g>
<!-- AppComponent -->
<g id="node1" class="node">
<title>AppComponent</title>
<polygon fill="#ffffb3" stroke="black" points="2176.94,-122 2071.06,-122 2071.06,-86 2176.94,-86 2176.94,-122"/>
<text text-anchor="middle" x="2124" y="-99.8" font-family="Times,serif" font-size="14.00">AppComponent</text>
</g>
<!-- AppModule -->
<g id="node14" class="node">
<title>AppModule</title>
<polygon fill="#8dd3c7" stroke="black" points="1194.66,-187 1191.66,-191 1170.66,-191 1167.66,-187 1111.34,-187 1111.34,-151 1194.66,-151 1194.66,-187"/>
<text text-anchor="middle" x="1153" y="-164.8" font-family="Times,serif" font-size="14.00">AppModule</text>
</g>
<!-- AppComponent&#45;&gt;AppModule -->
<g id="edge1" class="edge">
<title>AppComponent&#45;&gt;AppModule</title>
<path fill="none" stroke="black" d="M2124,-122.09C2124,-145.13 2124,-182 2124,-182 2124,-182 1204.72,-182 1204.72,-182"/>
<polygon fill="black" stroke="black" points="1204.72,-178.5 1194.72,-182 1204.72,-185.5 1204.72,-178.5"/>
</g>
<!-- CadastrarComponent -->
<g id="node2" class="node">
<title>CadastrarComponent</title>
<polygon fill="#ffffb3" stroke="black" points="2053.47,-122 1918.53,-122 1918.53,-86 2053.47,-86 2053.47,-122"/>
<text text-anchor="middle" x="1986" y="-99.8" font-family="Times,serif" font-size="14.00">CadastrarComponent</text>
</g>
<!-- CadastrarComponent&#45;&gt;AppModule -->
<g id="edge2" class="edge">
<title>CadastrarComponent&#45;&gt;AppModule</title>
<path fill="none" stroke="black" d="M1986,-122.04C1986,-143.66 1986,-177 1986,-177 1986,-177 1204.88,-177 1204.88,-177"/>
<polygon fill="black" stroke="black" points="1204.88,-173.5 1194.88,-177 1204.88,-180.5 1204.88,-173.5"/>
</g>
<!-- DeletePostagemComponent -->
<g id="node3" class="node">
<title>DeletePostagemComponent</title>
<polygon fill="#ffffb3" stroke="black" points="1900.3,-122 1727.7,-122 1727.7,-86 1900.3,-86 1900.3,-122"/>
<text text-anchor="middle" x="1814" y="-99.8" font-family="Times,serif" font-size="14.00">DeletePostagemComponent</text>
</g>
<!-- DeletePostagemComponent&#45;&gt;AppModule -->
<g id="edge3" class="edge">
<title>DeletePostagemComponent&#45;&gt;AppModule</title>
<path fill="none" stroke="black" d="M1814,-122.22C1814,-142.37 1814,-172 1814,-172 1814,-172 1204.85,-172 1204.85,-172"/>
<polygon fill="black" stroke="black" points="1204.85,-168.5 1194.85,-172 1204.85,-175.5 1204.85,-168.5"/>
</g>
<!-- DeleteTemaComponent -->
<g id="node4" class="node">
<title>DeleteTemaComponent</title>
<polygon fill="#ffffb3" stroke="black" points="1709.74,-122 1560.26,-122 1560.26,-86 1709.74,-86 1709.74,-122"/>
<text text-anchor="middle" x="1635" y="-99.8" font-family="Times,serif" font-size="14.00">DeleteTemaComponent</text>
</g>
<!-- DeleteTemaComponent&#45;&gt;AppModule -->
<g id="edge4" class="edge">
<title>DeleteTemaComponent&#45;&gt;AppModule</title>
<path fill="none" stroke="black" d="M1635,-122.22C1635,-140.83 1635,-167 1635,-167 1635,-167 1204.93,-167 1204.93,-167"/>
<polygon fill="black" stroke="black" points="1204.93,-163.5 1194.93,-167 1204.93,-170.5 1204.93,-163.5"/>
</g>
<!-- FeedComponent -->
<g id="node5" class="node">
<title>FeedComponent</title>
<polygon fill="#ffffb3" stroke="black" points="1542.05,-122 1433.95,-122 1433.95,-86 1542.05,-86 1542.05,-122"/>
<text text-anchor="middle" x="1488" y="-99.8" font-family="Times,serif" font-size="14.00">FeedComponent</text>
</g>
<!-- FeedComponent&#45;&gt;AppModule -->
<g id="edge5" class="edge">
<title>FeedComponent&#45;&gt;AppModule</title>
<path fill="none" stroke="black" d="M1488,-122.03C1488,-139.06 1488,-162 1488,-162 1488,-162 1204.75,-162 1204.75,-162"/>
<polygon fill="black" stroke="black" points="1204.75,-158.5 1194.75,-162 1204.75,-165.5 1204.75,-158.5"/>
</g>
<!-- FooterComponent -->
<g id="node6" class="node">
<title>FooterComponent</title>
<polygon fill="#ffffb3" stroke="black" points="1415.88,-122 1298.12,-122 1298.12,-86 1415.88,-86 1415.88,-122"/>
<text text-anchor="middle" x="1357" y="-99.8" font-family="Times,serif" font-size="14.00">FooterComponent</text>
</g>
<!-- FooterComponent&#45;&gt;AppModule -->
<g id="edge6" class="edge">
<title>FooterComponent&#45;&gt;AppModule</title>
<path fill="none" stroke="black" d="M1357,-122.24C1357,-137.57 1357,-157 1357,-157 1357,-157 1204.77,-157 1204.77,-157"/>
<polygon fill="black" stroke="black" points="1204.77,-153.5 1194.77,-157 1204.77,-160.5 1204.77,-153.5"/>
</g>
<!-- HomeComponent -->
<g id="node7" class="node">
<title>HomeComponent</title>
<polygon fill="#ffffb3" stroke="black" points="1279.55,-122 1164.45,-122 1164.45,-86 1279.55,-86 1279.55,-122"/>
<text text-anchor="middle" x="1222" y="-99.8" font-family="Times,serif" font-size="14.00">HomeComponent</text>
</g>
<!-- HomeComponent&#45;&gt;AppModule -->
<g id="edge7" class="edge">
<title>HomeComponent&#45;&gt;AppModule</title>
<path fill="none" stroke="black" d="M1179.53,-122.11C1179.53,-122.11 1179.53,-140.99 1179.53,-140.99"/>
<polygon fill="black" stroke="black" points="1176.03,-140.99 1179.53,-150.99 1183.03,-140.99 1176.03,-140.99"/>
</g>
<!-- NavbarComponent -->
<g id="node8" class="node">
<title>NavbarComponent</title>
<polygon fill="#ffffb3" stroke="black" points="1146.03,-122 1023.97,-122 1023.97,-86 1146.03,-86 1146.03,-122"/>
<text text-anchor="middle" x="1085" y="-99.8" font-family="Times,serif" font-size="14.00">NavbarComponent</text>
</g>
<!-- NavbarComponent&#45;&gt;AppModule -->
<g id="edge8" class="edge">
<title>NavbarComponent&#45;&gt;AppModule</title>
<path fill="none" stroke="black" d="M1128.72,-122.11C1128.72,-122.11 1128.72,-140.99 1128.72,-140.99"/>
<polygon fill="black" stroke="black" points="1125.22,-140.99 1128.72,-150.99 1132.22,-140.99 1125.22,-140.99"/>
</g>
<!-- PerfilLateralComponent -->
<g id="node9" class="node">
<title>PerfilLateralComponent</title>
<polygon fill="#ffffb3" stroke="black" points="1006.07,-122 853.93,-122 853.93,-86 1006.07,-86 1006.07,-122"/>
<text text-anchor="middle" x="930" y="-99.8" font-family="Times,serif" font-size="14.00">PerfilLateralComponent</text>
</g>
<!-- PerfilLateralComponent&#45;&gt;AppModule -->
<g id="edge9" class="edge">
<title>PerfilLateralComponent&#45;&gt;AppModule</title>
<path fill="none" stroke="black" d="M930,-122.24C930,-137.57 930,-157 930,-157 930,-157 1101.32,-157 1101.32,-157"/>
<polygon fill="black" stroke="black" points="1101.32,-160.5 1111.32,-157 1101.32,-153.5 1101.32,-160.5"/>
</g>
<!-- PutDadosPessoaisComponent -->
<g id="node10" class="node">
<title>PutDadosPessoaisComponent</title>
<polygon fill="#ffffb3" stroke="black" points="835.71,-122 652.29,-122 652.29,-86 835.71,-86 835.71,-122"/>
<text text-anchor="middle" x="744" y="-99.8" font-family="Times,serif" font-size="14.00">PutDadosPessoaisComponent</text>
</g>
<!-- PutDadosPessoaisComponent&#45;&gt;AppModule -->
<g id="edge10" class="edge">
<title>PutDadosPessoaisComponent&#45;&gt;AppModule</title>
<path fill="none" stroke="black" d="M744,-122.03C744,-139.06 744,-162 744,-162 744,-162 1101.15,-162 1101.15,-162"/>
<polygon fill="black" stroke="black" points="1101.15,-165.5 1111.15,-162 1101.15,-158.5 1101.15,-165.5"/>
</g>
<!-- PutPostagemComponent -->
<g id="node11" class="node">
<title>PutPostagemComponent</title>
<polygon fill="#ffffb3" stroke="black" points="634.44,-122 479.56,-122 479.56,-86 634.44,-86 634.44,-122"/>
<text text-anchor="middle" x="557" y="-99.8" font-family="Times,serif" font-size="14.00">PutPostagemComponent</text>
</g>
<!-- PutPostagemComponent&#45;&gt;AppModule -->
<g id="edge11" class="edge">
<title>PutPostagemComponent&#45;&gt;AppModule</title>
<path fill="none" stroke="black" d="M557,-122.22C557,-140.83 557,-167 557,-167 557,-167 1101.09,-167 1101.09,-167"/>
<polygon fill="black" stroke="black" points="1101.09,-170.5 1111.09,-167 1101.09,-163.5 1101.09,-170.5"/>
</g>
<!-- PutTemaComponent -->
<g id="node12" class="node">
<title>PutTemaComponent</title>
<polygon fill="#ffffb3" stroke="black" points="461.88,-122 330.12,-122 330.12,-86 461.88,-86 461.88,-122"/>
<text text-anchor="middle" x="396" y="-99.8" font-family="Times,serif" font-size="14.00">PutTemaComponent</text>
</g>
<!-- PutTemaComponent&#45;&gt;AppModule -->
<g id="edge12" class="edge">
<title>PutTemaComponent&#45;&gt;AppModule</title>
<path fill="none" stroke="black" d="M396,-122.22C396,-142.37 396,-172 396,-172 396,-172 1101.22,-172 1101.22,-172"/>
<polygon fill="black" stroke="black" points="1101.22,-175.5 1111.22,-172 1101.22,-168.5 1101.22,-175.5"/>
</g>
<!-- SobreNosComponent -->
<g id="node13" class="node">
<title>SobreNosComponent</title>
<polygon fill="#ffffb3" stroke="black" points="312.04,-122 175.96,-122 175.96,-86 312.04,-86 312.04,-122"/>
<text text-anchor="middle" x="244" y="-99.8" font-family="Times,serif" font-size="14.00">SobreNosComponent</text>
</g>
<!-- SobreNosComponent&#45;&gt;AppModule -->
<g id="edge13" class="edge">
<title>SobreNosComponent&#45;&gt;AppModule</title>
<path fill="none" stroke="black" d="M244,-122.04C244,-143.66 244,-177 244,-177 244,-177 1101.28,-177 1101.28,-177"/>
<polygon fill="black" stroke="black" points="1101.28,-180.5 1111.28,-177 1101.28,-173.5 1101.28,-180.5"/>
</g>
<!-- AppComponent  -->
<g id="node16" class="node">
<title>AppComponent </title>
<polygon fill="#80b1d3" stroke="black" points="1207.44,-252 1098.56,-252 1098.56,-216 1207.44,-216 1207.44,-252"/>
<text text-anchor="middle" x="1153" y="-229.8" font-family="Times,serif" font-size="14.00">AppComponent </text>
</g>
<!-- AppModule&#45;&gt;AppComponent  -->
<g id="edge15" class="edge">
<title>AppModule&#45;&gt;AppComponent </title>
<path fill="none" stroke="black" stroke-dasharray="1,5" d="M1153,-187.11C1153,-187.11 1153,-205.99 1153,-205.99"/>
<polygon fill="black" stroke="black" points="1149.5,-205.99 1153,-215.99 1156.5,-205.99 1149.5,-205.99"/>
</g>
<!-- AppRoutingModule -->
<g id="node15" class="node">
<title>AppRoutingModule</title>
<polygon fill="#8dd3c7" stroke="black" points="152.27,-122 149.27,-126 128.27,-126 125.27,-122 23.73,-122 23.73,-86 152.27,-86 152.27,-122"/>
<text text-anchor="middle" x="88" y="-99.8" font-family="Times,serif" font-size="14.00">AppRoutingModule</text>
</g>
<!-- AppRoutingModule&#45;&gt;AppModule -->
<g id="edge14" class="edge">
<title>AppRoutingModule&#45;&gt;AppModule</title>
<path fill="none" stroke="black" d="M88,-122.09C88,-145.13 88,-182 88,-182 88,-182 1101.25,-182 1101.25,-182"/>
<polygon fill="black" stroke="black" points="1101.25,-185.5 1111.25,-182 1101.25,-178.5 1101.25,-185.5"/>
</g>
</g>
</svg>
